<?xml version="1.0" encoding="UTF-8" standalone="no"?>
<!-- Created with Inkscape (http://www.inkscape.org/) -->

<svg
   xmlns:dc="http://purl.org/dc/elements/1.1/"
   xmlns:cc="http://creativecommons.org/ns#"
   xmlns:rdf="http://www.w3.org/1999/02/22-rdf-syntax-ns#"
   xmlns:svg="http://www.w3.org/2000/svg"
   xmlns="http://www.w3.org/2000/svg"
   xmlns:sodipodi="http://sodipodi.sourceforge.net/DTD/sodipodi-0.dtd"
   xmlns:inkscape="http://www.inkscape.org/namespaces/inkscape"
   width="96"
   height="96"
   id="svg13028"
   version="1.1"
   inkscape:version="0.48.2 r9819"
   sodipodi:docname="96x96.svg"
   inkscape:export-filename="/Users/zerha/devel/tw/node_modules/iokit/public/images/app-icons/search/96x96g.png"
   inkscape:export-xdpi="90"
   inkscape:export-ydpi="90">
  <defs
     id="defs13030" />
  <sodipodi:namedview
     id="base"
     pagecolor="#ffffff"
     bordercolor="#666666"
     borderopacity="1.0"
     inkscape:pageopacity="0.0"
     inkscape:pageshadow="2"
     inkscape:zoom="1.4"
     inkscape:cx="128.1629"
     inkscape:cy="-2.6169138"
     inkscape:document-units="px"
     inkscape:current-layer="layer1"
     showgrid="false"
     inkscape:window-width="1280"
     inkscape:window-height="752"
     inkscape:window-x="0"
     inkscape:window-y="0"
     inkscape:window-maximized="1" />
  <metadata
     id="metadata13033">
    <rdf:RDF>
      <cc:Work
         rdf:about="">
        <dc:format>image/svg+xml</dc:format>
        <dc:type
           rdf:resource="http://purl.org/dc/dcmitype/StillImage" />
        <dc:title></dc:title>
      </cc:Work>
    </rdf:RDF>
  </metadata>
  <g
     inkscape:label="Layer 1"
     inkscape:groupmode="layer"
     id="layer1"
     transform="translate(0,-956.36218)">
    <path
       sodipodi:nodetypes="cscszssszzcssccsc"
       inkscape:connector-curvature="0"
       id="path3214"
       d="m 29.665593,1006.8829 c 0,-2.6529 1.422016,-4.1686 5.846773,-6.2318 l 5.846775,-2.72654 c 0,0 0.04286,-2.3787 -0.355415,-3.5325 -0.248301,-0.7196 -0.881544,-1.4335 -1.057667,-1.9307 -0.176113,-0.49725 -0.154088,-0.59572 -0.154088,-0.59572 -2.254656,-8.7171 1.33277,-12.41698 6.638264,-12.41698 5.305495,0 8.494029,3.64234 6.474925,12.41698 0,0 0.04557,0.11899 -0.128052,0.55642 -0.173622,0.4388 -0.868061,1.0221 -1.137526,1.9523 -0.269466,0.9305 -0.12866,3.5502 -0.12866,3.5502 l 5.846778,2.72654 c 4.424772,2.0632 5.846775,3.5789 5.846775,6.2318 0,1.3741 0.0023,3.6127 0.0023,3.6127 l -33.556441,-0.027 c 0,0 0.01522,-2.1808 0.01522,-3.5908 z"
       style="fill:#333333" />
    <path
       style="fill:#1a1a1a"
       d="m 5.9143647,1022.3503 c 0,-3.3732 1.8081755,-5.3005 7.4345103,-7.9241 l 7.434511,-3.4669 c 0,0 0.0545,-3.0247 -0.451931,-4.4917 -0.315728,-0.9152 -1.120933,-1.8229 -1.344884,-2.4551 -0.223937,-0.6323 -0.195932,-0.7575 -0.195932,-0.7575 -2.866925,-11.08433 1.694694,-15.78894 8.440936,-15.78894 6.746241,0 10.800648,4.63143 8.233239,15.78894 0,0 0.05794,0.1513 -0.162824,0.7075 -0.220771,0.558 -1.10379,1.2997 -1.44643,2.4825 -0.342642,1.1832 -0.163598,4.5143 -0.163598,4.5143 l 7.434515,3.4669 c 5.626352,2.6236 7.434511,4.5509 7.434511,7.9241 0,1.7472 0.0029,4.5938 0.0029,4.5938 l -42.66895,-0.035 c 0,0 0.01935,-2.7731 0.01935,-4.566 z"
       id="path3438"
       inkscape:connector-curvature="0"
       sodipodi:nodetypes="cscszssszzcssccsc" />
    <path
       sodipodi:nodetypes="cscszssszzcssccsc"
       inkscape:connector-curvature="0"
       id="path3216"
       d="m 45.742211,1029.601 c 0,-3.5564 1.906323,-5.5883 7.838054,-8.3543 l 7.838055,-3.6551 c 0,0 0.05746,-3.1888 -0.476461,-4.7355 -0.332866,-0.9648 -1.181778,-1.9218 -1.417885,-2.5883 -0.236092,-0.6666 -0.206567,-0.7986 -0.206567,-0.7986 -3.022541,-11.68603 1.786682,-16.646 8.899109,-16.646 7.112426,0 11.386905,4.88287 8.680138,16.646 0,0 0.06109,0.1595 -0.171663,0.7459 -0.232754,0.5883 -1.163703,1.3702 -1.524941,2.6172 -0.361241,1.2474 -0.172479,4.7593 -0.172479,4.7593 l 7.838059,3.6551 c 5.93175,2.766 7.838055,4.7979 7.838055,8.3543 0,1.842 0.0031,4.8431 0.0031,4.8431 l -44.985013,-0.037 c 0,0 0.0204,-2.9236 0.0204,-4.8138 z"
       style="fill:#000000" />
  </g>
</svg>
