<?xml version="1.0" encoding="UTF-8" standalone="no"?>
<!-- Created with Inkscape (http://www.inkscape.org/) -->

<svg
   xmlns:dc="http://purl.org/dc/elements/1.1/"
   xmlns:cc="http://creativecommons.org/ns#"
   xmlns:rdf="http://www.w3.org/1999/02/22-rdf-syntax-ns#"
   xmlns:svg="http://www.w3.org/2000/svg"
   xmlns="http://www.w3.org/2000/svg"
   xmlns:sodipodi="http://sodipodi.sourceforge.net/DTD/sodipodi-0.dtd"
   xmlns:inkscape="http://www.inkscape.org/namespaces/inkscape"
   width="400"
   height="48"
   id="svg4875"
   version="1.1"
   inkscape:version="0.48.2 r9819"
   sodipodi:docname="inter-sprites24x24.svg"
   inkscape:export-filename="/Users/zerha/devel/tw/experimental/node_modules/inter/public/images/icons/inter-sprites24x24.png"
   inkscape:export-xdpi="89.440994"
   inkscape:export-ydpi="89.440994">
  <defs
     id="defs4877" />
  <sodipodi:namedview
     id="base"
     pagecolor="#ffffff"
     bordercolor="#666666"
     borderopacity="1.0"
     inkscape:pageopacity="0.0"
     inkscape:pageshadow="2"
     inkscape:zoom="5.2784913"
     inkscape:cx="225.91645"
     inkscape:cy="18.73603"
     inkscape:current-layer="layer1"
     showgrid="true"
     inkscape:document-units="px"
     inkscape:grid-bbox="true"
     inkscape:window-width="1280"
     inkscape:window-height="752"
     inkscape:window-x="0"
     inkscape:window-y="22"
     inkscape:window-maximized="1"
     inkscape:snap-global="false">
    <inkscape:grid
       type="xygrid"
       id="grid6017"
       empspacing="5"
       visible="true"
       enabled="false"
       snapvisiblegridlinesonly="true" />
    <inkscape:grid
       type="xygrid"
       id="grid6498"
       empspacing="1"
       visible="true"
       enabled="true"
       snapvisiblegridlinesonly="false"
       spacingx="24px"
       spacingy="24px"
       dotted="false"
       empcolor="#ff00d1"
       empopacity="0.25098039" />
    <inkscape:grid
       type="xygrid"
       id="grid6500"
       empspacing="1"
       visible="true"
       enabled="true"
       snapvisiblegridlinesonly="false"
       spacingx="12px"
       spacingy="12px"
       dotted="false"
       originx="6px"
       originy="6px"
       empcolor="#7878ff"
       empopacity="0.25098039" />
  </sodipodi:namedview>
  <metadata
     id="metadata4880">
    <rdf:RDF>
      <cc:Work
         rdf:about="">
        <dc:format>image/svg+xml</dc:format>
        <dc:type
           rdf:resource="http://purl.org/dc/dcmitype/StillImage" />
        <dc:title></dc:title>
      </cc:Work>
    </rdf:RDF>
  </metadata>
  <g
     id="layer1"
     inkscape:label="Layer 1"
     inkscape:groupmode="layer"
     transform="translate(0,-16)">
    <path
       style="fill:#000000;fill-opacity:1;stroke:none"
       d="M 196,21 210.49747,21 212,22.672877 212,34.9906 210.01582,37 198.0094,37 196,35.014401 z"
       id="rect10322"
       inkscape:connector-curvature="0"
       sodipodi:nodetypes="cccccccc" />
    <path
       style="fill:none;stroke:#000000;stroke-width:2.86080098;stroke-linecap:square;stroke-linejoin:miter;stroke-miterlimit:4;stroke-opacity:1;stroke-dasharray:none"
       d="m 17.368561,27.526463 -10.9927722,0"
       id="path6015"
       inkscape:connector-curvature="0" />
    <path
       inkscape:connector-curvature="0"
       id="path6086"
       d="m 11.851617,33.458148 0,-11.230801"
       style="fill:none;stroke:#000000;stroke-width:2.86080098;stroke-linecap:square;stroke-linejoin:miter;stroke-miterlimit:4;stroke-opacity:1;stroke-dasharray:none" />
    <path
       sodipodi:type="arc"
       style="fill:none;stroke:#000000;stroke-width:2;stroke-miterlimit:4;stroke-opacity:1;stroke-dasharray:none"
       id="path6502"
       sodipodi:cx="-7"
       sodipodi:cy="14"
       sodipodi:rx="14"
       sodipodi:ry="14"
       d="m 7,14 a 14,14 0 1 1 -28,0 14,14 0 1 1 28,0 z"
       transform="matrix(0.93333333,0,0,0.93333333,104.79545,-14.84697)" />
    <path
       style="fill:none;stroke:#000000;stroke-width:1.99233055;stroke-linecap:butt;stroke-linejoin:miter;stroke-miterlimit:4;stroke-opacity:1;stroke-dasharray:none"
       d="m 29.454177,30.354295 0,3.305894 11.868865,0 0,-3.305894"
       id="path6164"
       inkscape:connector-curvature="0"
       sodipodi:nodetypes="cccc" />
    <path
       style="fill:#000000;fill-opacity:1;stroke:#000000;stroke-width:0.33597785px;stroke-linecap:butt;stroke-linejoin:miter;stroke-opacity:1"
       d="m 31.83578,26.013819 3.503786,-3.221686 3.503785,3.221686 z"
       id="path6166"
       inkscape:connector-curvature="0" />
    <path
       style="fill:none;stroke:#000000;stroke-width:2.97120953;stroke-linecap:square;stroke-linejoin:miter;stroke-miterlimit:4;stroke-opacity:1;stroke-dasharray:none"
       d="m 35.339566,26.238822 0,3.981174"
       id="path6168"
       inkscape:connector-curvature="0"
       sodipodi:nodetypes="cc" />
    <path
       inkscape:connector-curvature="0"
       id="path6612"
       d="m 87.91786,27.526463 -10.99277,0"
       style="fill:none;stroke:#000000;stroke-width:2.86080098;stroke-linecap:square;stroke-linejoin:miter;stroke-miterlimit:4;stroke-opacity:1;stroke-dasharray:none" />
    <path
       sodipodi:nodetypes="cccc"
       inkscape:connector-curvature="0"
       id="path6614"
       d="m 52.970609,30.354295 0,3.305894 11.868868,0 0,-3.305894"
       style="fill:none;stroke:#000000;stroke-width:1.99233055;stroke-linecap:butt;stroke-linejoin:miter;stroke-miterlimit:4;stroke-opacity:1;stroke-dasharray:none" />
    <path
       inkscape:connector-curvature="0"
       id="path6616"
       d="m 55.352218,28.33011 3.503783,3.221693 3.503786,-3.221693 z"
       style="fill:#000000;fill-opacity:1;stroke:#000000;stroke-width:0.33597785px;stroke-linecap:butt;stroke-linejoin:miter;stroke-opacity:1" />
    <path
       sodipodi:nodetypes="cc"
       inkscape:connector-curvature="0"
       id="path6618"
       d="m 58.856001,28.105111 0,-3.981174"
       style="fill:none;stroke:#000000;stroke-width:2.97120953;stroke-linecap:square;stroke-linejoin:miter;stroke-miterlimit:4;stroke-opacity:1;stroke-dasharray:none" />
    <text
       xml:space="preserve"
       style="font-size:50.71829987px;font-style:normal;font-weight:normal;line-height:125%;letter-spacing:0px;word-spacing:0px;fill:#000000;fill-opacity:1;stroke:none;font-family:Sans"
       x="108.33595"
       y="31.728357"
       id="text6620"
       sodipodi:linespacing="125%"
       transform="scale(0.95520007,1.0469011)"><tspan
         sodipodi:role="line"
         id="tspan6622"
         x="108.33595"
         y="31.728357"
         style="font-size:15.21548843px;font-style:normal;font-variant:normal;font-weight:bold;font-stretch:normal;font-family:American Typewriter;-inkscape-font-specification:American Typewriter Bold">i</tspan></text>
    <g
       id="g4493"
       transform="matrix(0.45755258,0,0,0.46746009,254.24503,-471.13031)"
       inkscape:export-filename="/Users/zerha/devel/tw/tas10/tas10box/vendor/assets/images/tas10-icons_16x16.png"
       inkscape:export-xdpi="44.996399"
       inkscape:export-ydpi="44.996399">
      <path
         style="fill:none;stroke:#000000;stroke-width:1px;stroke-linecap:butt;stroke-linejoin:miter;stroke-opacity:1"
         d="m -270.60264,1059.4528 4.89462,3.4702"
         id="path4454"
         inkscape:connector-curvature="0" />
      <g
         id="g4489">
        <path
           inkscape:connector-curvature="0"
           id="path4449"
           d="m -282.34447,1080.8285 5.3392,-2.3438 14.45943,-20.3942 -4.89462,-3.4703 -14.45943,20.3943 z"
           style="fill:none;stroke:#000000;stroke-width:1;stroke-linecap:round;stroke-linejoin:round;stroke-miterlimit:4;stroke-opacity:1;stroke-dasharray:none" />
        <path
           sodipodi:type="star"
           style="fill:#000000;fill-opacity:1;stroke:#00000f;stroke-width:1;stroke-linecap:butt;stroke-linejoin:miter;stroke-miterlimit:4;stroke-opacity:1;stroke-dasharray:none"
           id="path4470"
           sodipodi:sides="3"
           sodipodi:cx="-290.33966"
           sodipodi:cy="55.661179"
           sodipodi:r1="1.9364232"
           sodipodi:r2="0.5269683"
           sodipodi:arg1="-1.671234"
           sodipodi:arg2="-0.62403641"
           inkscape:flatsided="true"
           inkscape:rounded="0.02"
           inkscape:randomized="0"
           d="m -290.53382,53.734514 c 0.0667,-0.0067 1.98733,2.660684 1.95978,2.721847 -0.0275,0.06116 -3.29788,0.390737 -3.33708,0.3363 -0.0392,-0.05444 1.31055,-3.051421 1.3773,-3.058147 z"
           transform="matrix(1.2326675,-0.37310882,0.41156872,1.1174784,55.066202,907.00674)"
           inkscape:transform-center-x="-0.47878343"
           inkscape:transform-center-y="0.14676739" />
      </g>
    </g>
    <path
       transform="matrix(0.15970941,-0.02472907,0.02420486,0.16316768,171.46962,12.104293)"
       d="m -89.493198,109.89223 -26.751122,-13.90437 -1.66417,30.1029 -11.55499,-27.846654 -20.6246,21.990444 9.04784,-28.759175 -29.93454,3.588425 25.41709,-16.214966 -25.23779,-16.492664 29.89341,3.91641 -8.73199,-28.856652 20.38226,22.215254 11.85961,-27.71829 1.33402,30.119333 26.90196,-13.610233 -18.33841,23.930242 29.356584,6.866203 -29.430104,6.543925 z"
       inkscape:randomized="0"
       inkscape:rounded="0"
       inkscape:flatsided="false"
       sodipodi:arg2="1.0526796"
       sodipodi:arg1="0.70361378"
       sodipodi:r2="19.604589"
       sodipodi:r1="47.816074"
       sodipodi:cy="78.956306"
       sodipodi:cx="-125.95339"
       sodipodi:sides="9"
       id="path3172"
       style="fill:none;stroke:#000000;stroke-width:10;stroke-linecap:round;stroke-linejoin:bevel;stroke-miterlimit:4;stroke-opacity:1;stroke-dasharray:none"
       sodipodi:type="star" />
    <g
       id="g3174"
       style="fill:none;stroke:#000000;stroke-opacity:1"
       transform="matrix(0.36843954,-0.05704839,0.05583924,0.37641754,132.87055,-392.89838)">
      <g
         id="g3176"
         transform="matrix(0.38234223,0,0,0.38234223,-65.402774,679.36612)"
         style="fill:none;stroke:#000000;stroke-width:25.46417809;stroke-miterlimit:4;stroke-opacity:1;stroke-dasharray:none">
        <path
           transform="matrix(1.2585756,0,0,1.2585756,-78.079516,982.58829)"
           d="m -11.048544,96.63398 c 0,12.20388 -10.511528,22.09709 -23.478155,22.09709 -12.966627,0 -23.478155,-9.89321 -23.478155,-22.09709 0,-12.203884 10.511528,-22.097086 23.478155,-22.097086 12.966627,0 23.478155,9.893202 23.478155,22.097086 z"
           sodipodi:ry="22.097086"
           sodipodi:rx="23.478155"
           sodipodi:cy="96.63398"
           sodipodi:cx="-34.526699"
           id="path3178"
           style="fill:none;stroke:#000000;stroke-width:20.23253632;stroke-linecap:round;stroke-linejoin:bevel;stroke-miterlimit:4;stroke-opacity:1;stroke-dasharray:none"
           sodipodi:type="arc" />
      </g>
    </g>
    <path
       style="fill:#000000;fill-opacity:1;stroke:#000000;stroke-width:0.99013895;stroke-linecap:round;stroke-linejoin:miter;stroke-miterlimit:4;stroke-opacity:1"
       d="m 175.91325,21.561525 -1.85651,1.655388 0,10.245792 0.25459,0.306259 2.05057,-0.03182 0,-4.003851 7.19139,-0.06365 0.0636,4.067499 2.26535,0 0.35007,-0.401733 0,-11.424912 -0.25459,-0.317145 z m 0.263,0.8509 9.0969,0 0,4.146208 -10.24175,0 0,-3.125127 z"
       id="rect4883"
       inkscape:connector-curvature="0"
       sodipodi:nodetypes="ccccccccccccccccccc" />
    <rect
       style="fill:#000000;fill-opacity:1;fill-rule:nonzero;stroke:none"
       id="rect5415"
       width="0.38189071"
       height="1.5275645"
       x="177.35539"
       y="32.714832" />
    <rect
       y="32.714832"
       x="177.96364"
       height="1.5275645"
       width="1.8776314"
       id="rect5417"
       style="fill:#000000;fill-opacity:1;fill-rule:nonzero;stroke:none" />
    <text
       transform="scale(0.95520007,1.0469011)"
       sodipodi:linespacing="125%"
       id="text10318"
       y="31.475956"
       x="206.39168"
       style="font-size:50.71829987px;font-style:normal;font-weight:normal;line-height:125%;letter-spacing:0px;word-spacing:0px;fill:#ffffff;fill-opacity:1;stroke:none;font-family:Sans"
       xml:space="preserve"><tspan
         style="font-size:15.21548843px;font-style:normal;font-variant:normal;font-weight:bold;font-stretch:normal;fill:#ffffff;fill-opacity:1;font-family:American Typewriter;-inkscape-font-specification:American Typewriter Bold"
         y="31.475956"
         x="206.39168"
         id="tspan10320"
         sodipodi:role="line">w</tspan></text>
    <g
       inkscape:export-ydpi="44.996399"
       inkscape:export-xdpi="44.996399"
       inkscape:export-filename="/Users/zerha/devel/tw/tas10/tas10box/vendor/assets/images/tas10-icons_16x16.png"
       transform="matrix(0.69450162,0,0,0.69450162,286.57016,-691.52083)"
       id="g3180">
      <path
         style="fill:#000000;fill-opacity:0.99038463;stroke:#000000;stroke-width:1;stroke-linejoin:round;stroke-opacity:1"
         d="m -27,1034.542 11.219926,-8.7356 4.729628,3.6224 -0.06954,-2.9982 2.029045,0 c 0,0 -0.04883,5.1578 -0.04883,4.2612 l 5.047559,3.8893 -1.499862,1.9917 -1.861647,-1.6598 0.09023,11.9251 -4.77997,-2e-4 c 0,0 0.383685,-4.8592 -0.20156,-5.9332 -0.585245,-1.0741 -5.093093,-1.114 -5.58568,0.069 -0.492587,1.1831 -0.207159,5.8639 -0.207159,5.8639 l -5.631875,3e-4 0.135402,-12.1507 c -1.092336,0.8063 -0.870616,0.8255 -1.969086,1.6234 z"
         id="path3182"
         inkscape:connector-curvature="0"
         sodipodi:nodetypes="ccccccccccczzccccc" />
      <rect
         style="opacity:0.53773588;fill:none;stroke:none"
         id="rect3184"
         width="23.754368"
         height="22.235195"
         x="-27.483252"
         y="4.7929616"
         transform="translate(0,1020.3622)"
         ry="0" />
    </g>
    <path
       transform="matrix(2.6659511,0,0,0.33319025,129.39927,62.327038)"
       d="m -13.672572,11.611984 a 0.01726335,0.08631675 0 1 1 -0.03453,0 0.01726335,0.08631675 0 1 1 0.03453,0 z"
       sodipodi:ry="0.086316749"
       sodipodi:rx="0.017263349"
       sodipodi:cy="11.611984"
       sodipodi:cx="-13.689836"
       id="path4350"
       style="fill:#ffffff;fill-opacity:1;stroke:#ffffff;stroke-width:1;stroke-linecap:round;stroke-linejoin:round;stroke-miterlimit:4;stroke-opacity:1;stroke-dasharray:none"
       sodipodi:type="arc"
       inkscape:export-filename="/Users/zerha/devel/tw/tas10/tas10box/vendor/assets/images/tas10-icons_16x16.png"
       inkscape:export-xdpi="44.996399"
       inkscape:export-ydpi="44.996399" />
    <path
       sodipodi:type="arc"
       style="fill:#ffffff;fill-opacity:1;stroke:#ffffff;stroke-width:1;stroke-linecap:round;stroke-linejoin:round;stroke-miterlimit:4;stroke-opacity:1;stroke-dasharray:none"
       id="path4356"
       sodipodi:cx="-13.689836"
       sodipodi:cy="11.611984"
       sodipodi:rx="0.017263349"
       sodipodi:ry="0.086316749"
       d="m -13.672572,11.611984 a 0.01726335,0.08631675 0 1 1 -0.03453,0 0.01726335,0.08631675 0 1 1 0.03453,0 z"
       transform="matrix(2.6659511,0,0,0.33319025,133.19211,63.567538)"
       inkscape:export-filename="/Users/zerha/devel/tw/tas10/tas10box/vendor/assets/images/tas10-icons_16x16.png"
       inkscape:export-xdpi="44.996399"
       inkscape:export-ydpi="44.996399" />
    <path
       sodipodi:type="arc"
       style="fill:#ffffff;fill-opacity:1;stroke:#ffffff;stroke-width:1;stroke-linecap:round;stroke-linejoin:round;stroke-miterlimit:4;stroke-opacity:1;stroke-dasharray:none"
       id="path4362"
       sodipodi:cx="-13.689836"
       sodipodi:cy="11.611984"
       sodipodi:rx="0.017263349"
       sodipodi:ry="0.086316749"
       d="m -13.672572,11.611984 a 0.01726335,0.08631675 0 1 1 -0.03453,0 0.01726335,0.08631675 0 1 1 0.03453,0 z"
       transform="matrix(2.6659511,0,0,0.33319025,131.19466,62.876938)"
       inkscape:export-filename="/Users/zerha/devel/tw/tas10/tas10box/vendor/assets/images/tas10-icons_16x16.png"
       inkscape:export-xdpi="44.996399"
       inkscape:export-ydpi="44.996399" />
    <path
       style="fill:#000000;fill-opacity:1;fill-rule:nonzero;stroke:none"
       d="m 293.83396,26.67873 13.07192,0 0,7.317431 -1.34982,1.586628 -10.56173,0 -1.16037,-1.515585 z"
       id="rect11927"
       inkscape:connector-curvature="0"
       sodipodi:nodetypes="ccccccc" />
    <path
       sodipodi:type="arc"
       style="fill:none;stroke:#000000;stroke-width:1.74247909;stroke-miterlimit:4;stroke-opacity:1;stroke-dasharray:none"
       id="path11929"
       sodipodi:cx="252.53429"
       sodipodi:cy="9.8262129"
       sodipodi:rx="2.8417211"
       sodipodi:ry="4.2625818"
       d="m 255.37601,9.8262129 a 2.8417211,4.2625818 0 1 1 -5.68344,0 2.8417211,4.2625818 0 1 1 5.68344,0 z"
       transform="matrix(1.3406631,0,0,0.98266427,-38.382916,16.170345)" />
    <path
       sodipodi:nodetypes="cccccccc"
       inkscape:connector-curvature="0"
       id="path11932"
       d="m 220.62825,21 14.49747,0 1.50253,1.672877 0,12.317723 -1.98418,2.0094 -12.00642,0 -2.0094,-1.985599 z"
       style="fill:#000000;fill-opacity:1;stroke:none" />
    <text
       xml:space="preserve"
       style="font-size:50.71829987px;font-style:normal;font-weight:normal;line-height:125%;letter-spacing:0px;word-spacing:0px;fill:#ffffff;fill-opacity:1;stroke:none;font-family:Sans"
       x="234.26881"
       y="31.475956"
       id="text11934"
       sodipodi:linespacing="125%"
       transform="scale(0.95520007,1.0469011)"><tspan
         sodipodi:role="line"
         id="tspan11936"
         x="234.26881"
         y="31.475956"
         style="font-size:15.21548843px;font-style:normal;font-variant:normal;font-weight:bold;font-stretch:normal;fill:#ffffff;fill-opacity:1;font-family:American Typewriter;-inkscape-font-specification:American Typewriter Bold">a</tspan></text>
    <path
       style="fill:#000000;fill-opacity:1;stroke:none"
       d="m 244.62825,21 14.49747,0 1.50253,1.672877 0,12.317723 -1.98418,2.0094 -12.00642,0 -2.0094,-1.985599 z"
       id="path11938"
       inkscape:connector-curvature="0"
       sodipodi:nodetypes="cccccccc" />
    <text
       transform="scale(0.95520007,1.0469011)"
       sodipodi:linespacing="125%"
       id="text11940"
       y="31.475956"
       x="259.39438"
       style="font-size:50.71829987px;font-style:normal;font-weight:normal;line-height:125%;letter-spacing:0px;word-spacing:0px;fill:#ffffff;fill-opacity:1;stroke:none;font-family:Sans"
       xml:space="preserve"><tspan
         style="font-size:15.21548843px;font-style:normal;font-variant:normal;font-weight:bold;font-stretch:normal;fill:#ffffff;fill-opacity:1;font-family:American Typewriter;-inkscape-font-specification:American Typewriter Bold"
         y="31.475956"
         x="259.39438"
         id="tspan11942"
         sodipodi:role="line">n</tspan></text>
  </g>
</svg>
