<?xml version="1.0" encoding="UTF-8" standalone="no"?>
<!-- Created with Inkscape (http://www.inkscape.org/) -->

<svg
   xmlns:dc="http://purl.org/dc/elements/1.1/"
   xmlns:cc="http://creativecommons.org/ns#"
   xmlns:rdf="http://www.w3.org/1999/02/22-rdf-syntax-ns#"
   xmlns:svg="http://www.w3.org/2000/svg"
   xmlns="http://www.w3.org/2000/svg"
   xmlns:sodipodi="http://sodipodi.sourceforge.net/DTD/sodipodi-0.dtd"
   xmlns:inkscape="http://www.inkscape.org/namespaces/inkscape"
   width="960"
   height="960"
   id="svg4875"
   version="1.1"
   inkscape:version="0.48.2 r9819"
   sodipodi:docname="inter-sprites96x96.svg"
   inkscape:export-filename="/Users/zerha/devel/tw/experimental/node_modules/inter/public/images/inter-icons16x16.png"
   inkscape:export-xdpi="15"
   inkscape:export-ydpi="15">
  <defs
     id="defs4877" />
  <sodipodi:namedview
     id="base"
     pagecolor="#ffffff"
     bordercolor="#666666"
     borderopacity="1.0"
     inkscape:pageopacity="0.0"
     inkscape:pageshadow="2"
     inkscape:zoom="1.59375"
     inkscape:cx="389.06765"
     inkscape:cy="752.64227"
     inkscape:current-layer="layer1"
     showgrid="true"
     inkscape:document-units="px"
     inkscape:grid-bbox="true"
     inkscape:window-width="1280"
     inkscape:window-height="752"
     inkscape:window-x="0"
     inkscape:window-y="0"
     inkscape:window-maximized="1"
     inkscape:snap-global="false">
    <inkscape:grid
       type="xygrid"
       id="grid6017"
       empspacing="5"
       visible="true"
       enabled="false"
       snapvisiblegridlinesonly="true" />
    <inkscape:grid
       type="xygrid"
       id="grid6498"
       empspacing="1"
       visible="true"
       enabled="true"
       snapvisiblegridlinesonly="false"
       spacingx="96px"
       spacingy="96px"
       dotted="false"
       empcolor="#ff00d1"
       empopacity="0.25098039" />
    <inkscape:grid
       type="xygrid"
       id="grid6500"
       empspacing="1"
       visible="true"
       enabled="true"
       snapvisiblegridlinesonly="false"
       spacingx="48px"
       spacingy="48px"
       dotted="false"
       originx="0px"
       originy="0px"
       empcolor="#7878ff"
       empopacity="0.25098039" />
  </sodipodi:namedview>
  <metadata
     id="metadata4880">
    <rdf:RDF>
      <cc:Work
         rdf:about="">
        <dc:format>image/svg+xml</dc:format>
        <dc:type
           rdf:resource="http://purl.org/dc/dcmitype/StillImage" />
        <dc:title></dc:title>
      </cc:Work>
    </rdf:RDF>
  </metadata>
  <g
     id="layer1"
     inkscape:label="Layer 1"
     inkscape:groupmode="layer"
     transform="translate(0,896)">
    <path
       style="fill:#000000;fill-opacity:1;fill-rule:nonzero;stroke:none"
       d="m 431.20445,-887.19803 c -8.7855,0.17514 -17.58552,3.29989 -24.77047,9.47425 -16.42275,14.11284 -18.27139,38.86784 -4.15855,55.29059 l 0.36161,0.39778 c 14.20185,16.05348 38.67296,17.73032 54.92898,3.76077 16.42275,-14.11283 18.27139,-38.86784 4.15855,-55.29059 -7.93847,-9.2378 -19.22447,-13.85798 -30.52012,-13.6328 z m 0.6509,11.35464 c 1.71922,5e-5 3.16303,0.65009 4.33936,1.98887 1.22153,1.28929 1.8442,2.88906 1.84422,4.77329 -2e-5,1.88432 -0.62269,3.50682 -1.84422,4.84561 -1.17633,1.28928 -2.62014,1.91659 -4.33936,1.91655 -1.67399,4e-5 -3.1178,-0.65001 -4.33935,-1.98887 -1.22157,-1.33879 -1.84423,-2.93856 -1.84422,-4.77329 -1e-5,-1.88423 0.59558,-3.484 1.7719,-4.77329 1.22154,-1.33878 2.69243,-1.98882 4.41167,-1.98887 z m -7.12377,16.3449 c 0.49766,3e-5 1.21957,0.0682 2.16968,0.21696 1.58349,0.24797 2.84682,0.39781 3.79693,0.39778 0.76912,3e-5 1.77982,-0.12707 3.00139,-0.32545 1.22155,-0.19831 1.88928,-0.28926 2.02503,-0.28929 1.26678,3e-5 1.88036,0.95907 1.88039,2.8929 l 0,22.41999 c -3e-5,2.5289 0.44217,3.76078 1.3018,3.76077 0.18096,1e-5 0.48775,-0.0455 0.9402,-0.14464 0.49765,-0.14875 0.91275,-0.21696 1.22948,-0.21697 1.90017,10e-6 2.85672,1.29078 2.85674,3.86925 -2e-5,3.42145 -1.3446,5.13491 -4.0139,5.13491 -0.45245,0 -1.71578,-0.11369 -3.79693,-0.36162 -1.26682,-0.14876 -2.71063,-0.21697 -4.33936,-0.21697 -0.81438,0 -1.99647,0.091 -3.57996,0.2893 -1.58351,0.19834 -2.77469,0.28929 -3.54381,0.28929 -1.22156,0 -2.23225,-0.44542 -3.00138,-1.33797 -0.76913,-0.94214 -1.15717,-2.14196 -1.15717,-3.57997 0,-2.82641 1.11903,-4.23086 3.29068,-4.23087 l 1.73574,0.43394 c 0.18097,0.0496 0.37052,0.0723 0.50626,0.0723 0.81436,1e-5 1.19331,-1.38171 1.19332,-4.15855 l 0,-12.0417 c -1e-5,-2.82639 -0.38804,-4.23084 -1.15716,-4.23087 -0.13573,3e-5 -0.51468,0.11371 -1.19332,0.36161 -0.45244,0.0992 -0.81339,0.14468 -1.08484,0.14465 -2.17165,3e-5 -3.29068,-1.38169 -3.29068,-4.15855 0,-1.48755 0.38804,-2.68738 1.15717,-3.57997 0.76913,-0.9421 1.8069,-1.41025 3.0737,-1.41028 z"
       id="path3593"
       inkscape:connector-curvature="0" />
    <path
       style="fill:#000000;fill-opacity:0.94117647;fill-rule:nonzero;stroke:none"
       d="m 908.30859,5.65625 c -12.07779,0.012502 -22.60303,14.864808 -24.37109,26.8125 -1.13976,7.701954 3.90657,16.12 10.03125,21.09375 -10.96004,3.11221 -20.20402,17.1028 -20.03125,31.09375 0,7.13013 5.43237,7.25 12.5625,7.25 l 21.75,0 0.21875,0 21.75,0 c 7.13013,0 12.5625,-0.11987 12.5625,-7.25 C 942.95402,70.6653 933.71004,56.67471 922.75,53.5625 928.87468,48.58875 933.92898,40.16952 932.78125,32.46875 930.99747,20.500347 920.40919,5.6437241 908.30859,5.65625 z"
       transform="translate(0,-896)"
       id="path12970"
       inkscape:connector-curvature="0"
       sodipodi:nodetypes="aaccsccsccaa" />
    <path
       style="fill:#000000;fill-opacity:1;stroke:none"
       d="m 5.3579121,-795.32788 79.7361009,0 8.263899,9.20082 0,67.74748 -10.91297,11.0517 -66.035334,0 -11.0516959,-10.92078 z"
       id="rect10322"
       inkscape:connector-curvature="0"
       sodipodi:nodetypes="cccccccc" />
    <path
       style="fill:none;stroke:#000000;stroke-width:11.94794846;stroke-linecap:square;stroke-linejoin:miter;stroke-miterlimit:4;stroke-opacity:1;stroke-dasharray:none"
       d="m 70.657687,-848.20717 -46.40499,0"
       id="path6015"
       inkscape:connector-curvature="0" />
    <path
       inkscape:connector-curvature="0"
       id="path6086"
       d="m 47.368409,-823.6978 0,-46.40499"
       style="fill:none;stroke:#000000;stroke-width:11.94794846;stroke-linecap:square;stroke-linejoin:miter;stroke-miterlimit:4;stroke-opacity:1;stroke-dasharray:none" />
    <path
       style="fill:none;stroke:#000000;stroke-width:13.7984972;stroke-linecap:butt;stroke-linejoin:miter;stroke-miterlimit:4;stroke-opacity:1;stroke-dasharray:none"
       d="m 199.08957,-835.20224 0,22.89599 82.2015,0 0,-22.89599"
       id="path6164"
       inkscape:connector-curvature="0"
       sodipodi:nodetypes="cccc" />
    <path
       style="fill:#000000;fill-opacity:1;stroke:#000000;stroke-width:2.32691765px;stroke-linecap:butt;stroke-linejoin:miter;stroke-opacity:1"
       d="m 215.58414,-865.26353 24.26651,-22.31281 24.26657,22.31281 z"
       id="path6166"
       inkscape:connector-curvature="0" />
    <path
       style="fill:none;stroke:#000000;stroke-width:20.57802391;stroke-linecap:square;stroke-linejoin:miter;stroke-miterlimit:4;stroke-opacity:1;stroke-dasharray:none"
       d="m 239.85065,-863.70521 0,27.57285"
       id="path6168"
       inkscape:connector-curvature="0"
       sodipodi:nodetypes="cc" />
    <path
       sodipodi:nodetypes="cccc"
       inkscape:connector-curvature="0"
       id="path6614"
       d="m 295.54717,-835.20224 0,22.89599 82.20151,0 0,-22.89599"
       style="fill:none;stroke:#000000;stroke-width:13.7984972;stroke-linecap:butt;stroke-linejoin:miter;stroke-miterlimit:4;stroke-opacity:1;stroke-dasharray:none" />
    <path
       inkscape:connector-curvature="0"
       id="path6616"
       d="m 312.04174,-849.22135 24.26658,22.31282 24.2665,-22.31282 z"
       style="fill:#000000;fill-opacity:1;stroke:#000000;stroke-width:2.32691765px;stroke-linecap:butt;stroke-linejoin:miter;stroke-opacity:1" />
    <path
       sodipodi:nodetypes="cc"
       inkscape:connector-curvature="0"
       id="path6618"
       d="m 336.30832,-850.77965 0,-27.57284"
       style="fill:none;stroke:#000000;stroke-width:20.57802391;stroke-linecap:square;stroke-linejoin:miter;stroke-miterlimit:4;stroke-opacity:1;stroke-dasharray:none" />
    <g
       id="g4493"
       transform="matrix(2.8800864,0,0,2.9424497,1312.1357,-3989.4043)"
       inkscape:export-filename="/Users/zerha/devel/tw/tas10/tas10box/vendor/assets/images/tas10-icons_16x16.png"
       inkscape:export-xdpi="44.996399"
       inkscape:export-ydpi="44.996399">
      <path
         style="fill:none;stroke:#000000;stroke-width:1px;stroke-linecap:butt;stroke-linejoin:miter;stroke-opacity:1"
         d="m -270.60264,1059.4528 4.89462,3.4702"
         id="path4454"
         inkscape:connector-curvature="0" />
      <g
         id="g4489">
        <path
           inkscape:connector-curvature="0"
           id="path4449"
           d="m -282.34447,1080.8285 5.3392,-2.3438 14.45943,-20.3942 -4.89462,-3.4703 -14.45943,20.3943 z"
           style="fill:none;stroke:#000000;stroke-width:1;stroke-linecap:round;stroke-linejoin:round;stroke-miterlimit:4;stroke-opacity:1;stroke-dasharray:none" />
        <path
           sodipodi:type="star"
           style="fill:#000000;fill-opacity:1;stroke:#00000f;stroke-width:1;stroke-linecap:butt;stroke-linejoin:miter;stroke-miterlimit:4;stroke-opacity:1;stroke-dasharray:none"
           id="path4470"
           sodipodi:sides="3"
           sodipodi:cx="-290.33966"
           sodipodi:cy="55.661179"
           sodipodi:r1="1.9364232"
           sodipodi:r2="0.5269683"
           sodipodi:arg1="-1.671234"
           sodipodi:arg2="-0.62403641"
           inkscape:flatsided="true"
           inkscape:rounded="0.02"
           inkscape:randomized="0"
           d="m -290.53382,53.734514 c 0.0667,-0.0067 1.98733,2.660684 1.95978,2.721847 -0.0275,0.06116 -3.29788,0.390737 -3.33708,0.3363 -0.0392,-0.05444 1.31055,-3.051421 1.3773,-3.058147 z"
           transform="matrix(1.2326675,-0.37310882,0.41156872,1.1174784,55.066202,907.00674)"
           inkscape:transform-center-x="-0.47878343"
           inkscape:transform-center-y="0.14676739" />
      </g>
    </g>
    <g
       id="g12987"
       transform="matrix(4.287017,0,0,4.287017,-1993.1879,-967.07914)">
      <path
         sodipodi:type="star"
         style="fill:none;stroke:#000000;stroke-width:10;stroke-linecap:round;stroke-linejoin:bevel;stroke-miterlimit:4;stroke-opacity:1;stroke-dasharray:none"
         id="path3172"
         sodipodi:sides="9"
         sodipodi:cx="-125.95339"
         sodipodi:cy="78.956306"
         sodipodi:r1="47.816074"
         sodipodi:r2="19.604589"
         sodipodi:arg1="0.70361378"
         sodipodi:arg2="1.0526796"
         inkscape:flatsided="false"
         inkscape:rounded="0"
         inkscape:randomized="0"
         d="m -89.493198,109.89223 -26.751122,-13.90437 -1.66417,30.1029 -11.55499,-27.846654 -20.6246,21.990444 9.04784,-28.759175 -29.93454,3.588425 25.41709,-16.214966 -25.23779,-16.492664 29.89341,3.91641 -8.73199,-28.856652 20.38226,22.215254 11.85961,-27.71829 1.33402,30.119333 26.90196,-13.610233 -18.33841,23.930242 29.356584,6.866203 -29.430104,6.543925 z"
         transform="matrix(0.2150439,-0.03329695,0.03259111,0.21970035,635.13574,6.6300906)" />
      <g
         transform="matrix(0.49609271,-0.07681393,0.07518585,0.50683485,583.16326,-538.69377)"
         style="fill:none;stroke:#000000;stroke-opacity:1"
         id="g3174">
        <g
           style="fill:none;stroke:#000000;stroke-width:25.46417809;stroke-miterlimit:4;stroke-opacity:1;stroke-dasharray:none"
           transform="matrix(0.38234223,0,0,0.38234223,-65.402774,679.36612)"
           id="g3176">
          <path
             sodipodi:type="arc"
             style="fill:none;stroke:#000000;stroke-width:20.23253632;stroke-linecap:round;stroke-linejoin:bevel;stroke-miterlimit:4;stroke-opacity:1;stroke-dasharray:none"
             id="path3178"
             sodipodi:cx="-34.526699"
             sodipodi:cy="96.63398"
             sodipodi:rx="23.478155"
             sodipodi:ry="22.097086"
             d="m -11.048544,96.63398 c 0,12.20388 -10.511528,22.09709 -23.478155,22.09709 -12.966627,0 -23.478155,-9.89321 -23.478155,-22.09709 0,-12.203884 10.511528,-22.097086 23.478155,-22.097086 12.966627,0 23.478155,9.893202 23.478155,22.097086 z"
             transform="matrix(1.2585756,0,0,1.2585756,-78.079516,982.58829)" />
        </g>
      </g>
    </g>
    <path
       style="fill:#000000;fill-opacity:1;stroke:#000000;stroke-width:6.71606541;stroke-linecap:round;stroke-linejoin:miter;stroke-miterlimit:4;stroke-opacity:1"
       d="m 691.55212,-888.48004 -12.5926,11.22838 0,69.49671 1.72677,2.07736 13.90896,-0.21588 0,-27.15794 48.77885,-0.43175 0.43153,27.58966 15.36577,0 2.37452,-2.72496 0,-77.49458 -1.72685,-2.1512 z m 1.78388,5.7716 61.70386,0 0,28.1235 -69.46933,0 0,-21.19757 z"
       id="rect4883"
       inkscape:connector-curvature="0"
       sodipodi:nodetypes="ccccccccccccccccccc" />
    <rect
       style="fill:#000000;fill-opacity:1;fill-rule:nonzero;stroke:none"
       id="rect5415"
       width="2.5903466"
       height="10.361399"
       x="701.33411"
       y="-812.82776" />
    <rect
       y="-812.82776"
       x="705.45966"
       height="10.361399"
       width="12.735885"
       id="rect5417"
       style="fill:#000000;fill-opacity:1;fill-rule:nonzero;stroke:none" />
    <text
       transform="scale(0.95520007,1.0469011)"
       sodipodi:linespacing="125%"
       id="text10318"
       y="-696.90515"
       x="12.204123"
       style="font-size:278.95074463px;font-style:normal;font-weight:normal;line-height:125%;letter-spacing:0px;word-spacing:0px;fill:#ffffff;fill-opacity:1;stroke:none;font-family:Sans"
       xml:space="preserve"><tspan
         style="font-size:83.68519592px;font-style:normal;font-variant:normal;font-weight:bold;font-stretch:normal;fill:#ffffff;fill-opacity:1;font-family:American Typewriter;-inkscape-font-specification:American Typewriter Bold"
         y="-696.90515"
         x="12.204123"
         id="tspan10320"
         sodipodi:role="line">w</tspan></text>
    <g
       inkscape:export-ydpi="44.996399"
       inkscape:export-xdpi="44.996399"
       inkscape:export-filename="/Users/zerha/devel/tw/tas10/tas10box/vendor/assets/images/tas10-icons_16x16.png"
       transform="matrix(3.8289095,0,0,3.8289095,876.37177,-4814.8641)"
       id="g3180">
      <path
         style="fill:#000000;fill-opacity:0.99038463;stroke:#000000;stroke-width:1;stroke-linejoin:round;stroke-opacity:1"
         d="m -27,1034.542 11.219926,-8.7356 4.729628,3.6224 -0.06954,-2.9982 2.029045,0 c 0,0 -0.04883,5.1578 -0.04883,4.2612 l 5.047559,3.8893 -1.499862,1.9917 -1.861647,-1.6598 0.09023,11.9251 -4.77997,-2e-4 c 0,0 0.383685,-4.8592 -0.20156,-5.9332 -0.585245,-1.0741 -5.093093,-1.114 -5.58568,0.069 -0.492587,1.1831 -0.207159,5.8639 -0.207159,5.8639 l -5.631875,3e-4 0.135402,-12.1507 c -1.092336,0.8063 -0.870616,0.8255 -1.969086,1.6234 z"
         id="path3182"
         inkscape:connector-curvature="0"
         sodipodi:nodetypes="ccccccccccczzccccc" />
      <rect
         style="opacity:0.53773588;fill:none;stroke:none"
         id="rect3184"
         width="23.754368"
         height="22.235195"
         x="-27.483252"
         y="4.7929616"
         transform="translate(0,1020.3622)"
         ry="0" />
    </g>
    <path
       transform="matrix(2.6659511,0,0,0.33319025,611.56296,-814.59906)"
       d="m -13.672572,11.611984 c 0,0.04767 -0.0077,0.08632 -0.01726,0.08632 -0.0095,0 -0.01726,-0.03865 -0.01726,-0.08632 0,-0.04767 0.0077,-0.08632 0.01726,-0.08632 0.0095,0 0.01726,0.03865 0.01726,0.08632 z"
       sodipodi:ry="0.086316749"
       sodipodi:rx="0.017263349"
       sodipodi:cy="11.611984"
       sodipodi:cx="-13.689836"
       id="path4350"
       style="fill:#ffffff;fill-opacity:1;stroke:#ffffff;stroke-width:1;stroke-linecap:round;stroke-linejoin:round;stroke-miterlimit:4;stroke-opacity:1;stroke-dasharray:none"
       sodipodi:type="arc"
       inkscape:export-filename="/Users/zerha/devel/tw/tas10/tas10box/vendor/assets/images/tas10-icons_16x16.png"
       inkscape:export-xdpi="44.996399"
       inkscape:export-ydpi="44.996399" />
    <path
       sodipodi:type="arc"
       style="fill:#ffffff;fill-opacity:1;stroke:#ffffff;stroke-width:1;stroke-linecap:round;stroke-linejoin:round;stroke-miterlimit:4;stroke-opacity:1;stroke-dasharray:none"
       id="path4356"
       sodipodi:cx="-13.689836"
       sodipodi:cy="11.611984"
       sodipodi:rx="0.017263349"
       sodipodi:ry="0.086316749"
       d="m -13.672572,11.611984 c 0,0.04767 -0.0077,0.08632 -0.01726,0.08632 -0.0095,0 -0.01726,-0.03865 -0.01726,-0.08632 0,-0.04767 0.0077,-0.08632 0.01726,-0.08632 0.0095,0 0.01726,0.03865 0.01726,0.08632 z"
       transform="matrix(2.6659511,0,0,0.33319025,615.3558,-813.35856)"
       inkscape:export-filename="/Users/zerha/devel/tw/tas10/tas10box/vendor/assets/images/tas10-icons_16x16.png"
       inkscape:export-xdpi="44.996399"
       inkscape:export-ydpi="44.996399" />
    <path
       sodipodi:type="arc"
       style="fill:#ffffff;fill-opacity:1;stroke:#ffffff;stroke-width:1;stroke-linecap:round;stroke-linejoin:round;stroke-miterlimit:4;stroke-opacity:1;stroke-dasharray:none"
       id="path4362"
       sodipodi:cx="-13.689836"
       sodipodi:cy="11.611984"
       sodipodi:rx="0.017263349"
       sodipodi:ry="0.086316749"
       d="m -13.672572,11.611984 c 0,0.04767 -0.0077,0.08632 -0.01726,0.08632 -0.0095,0 -0.01726,-0.03865 -0.01726,-0.08632 0,-0.04767 0.0077,-0.08632 0.01726,-0.08632 0.0095,0 0.01726,0.03865 0.01726,0.08632 z"
       transform="matrix(2.6659511,0,0,0.33319025,613.35835,-814.04916)"
       inkscape:export-filename="/Users/zerha/devel/tw/tas10/tas10box/vendor/assets/images/tas10-icons_16x16.png"
       inkscape:export-xdpi="44.996399"
       inkscape:export-ydpi="44.996399" />
    <path
       style="fill:#000000;fill-opacity:1;fill-rule:nonzero;stroke:none"
       d="m 303.71126,-759.71733 65.68554,0 0,36.76961 -6.78278,7.97271 -53.07196,0 -5.8308,-7.61574 z"
       id="rect11927"
       inkscape:connector-curvature="0"
       sodipodi:nodetypes="ccccccc" />
    <path
       style="fill:none;stroke:#000000;stroke-width:10.04986858;stroke-miterlimit:4;stroke-opacity:1"
       d="m 354.74607,-764.00117 c 2.83806,29.81799 -39.64547,29.63051 -38.28788,0 0,-11.62442 8.57103,-21.04787 19.14394,-21.04787 10.57292,0 19.14394,9.42345 19.14394,21.04787 z"
       id="path11929"
       inkscape:connector-curvature="0"
       sodipodi:nodetypes="ccsc" />
    <path
       sodipodi:nodetypes="cccccccc"
       inkscape:connector-curvature="0"
       id="path11932"
       d="m 99.695349,-795.32788 79.736071,0 8.26393,9.20086 0,67.74745 -10.91299,11.05169 -66.03532,0 -11.051691,-10.92076 z"
       style="fill:#000000;fill-opacity:1;stroke:none" />
    <text
       xml:space="preserve"
       style="font-size:278.95065308px;font-style:normal;font-weight:normal;line-height:125%;letter-spacing:0px;word-spacing:0px;fill:#ffffff;fill-opacity:1;stroke:none;font-family:Sans"
       x="122.48199"
       y="-696.90509"
       id="text11934"
       sodipodi:linespacing="125%"
       transform="scale(0.95520006,1.0469011)"><tspan
         sodipodi:role="line"
         id="tspan11936"
         x="122.48199"
         y="-696.90509"
         style="font-size:83.68518066px;font-style:normal;font-variant:normal;font-weight:bold;font-stretch:normal;fill:#ffffff;fill-opacity:1;font-family:American Typewriter;-inkscape-font-specification:American Typewriter Bold">a</tspan></text>
    <path
       style="fill:#000000;fill-opacity:1;stroke:none"
       d="m 196.25764,-795.4226 79.73607,0 8.26393,9.20082 0,67.74749 -10.91299,11.05169 -66.03532,0 -11.05169,-10.9208 z"
       id="path11938"
       inkscape:connector-curvature="0"
       sodipodi:nodetypes="cccccccc" />
    <text
       transform="scale(0.95520006,1.0469011)"
       sodipodi:linespacing="125%"
       id="text11940"
       y="-696.99573"
       x="223.57263"
       style="font-size:278.95065308px;font-style:normal;font-weight:normal;line-height:125%;letter-spacing:0px;word-spacing:0px;fill:#ffffff;fill-opacity:1;stroke:none;font-family:Sans"
       xml:space="preserve"><tspan
         style="font-size:83.68518066px;font-style:normal;font-variant:normal;font-weight:bold;font-stretch:normal;fill:#ffffff;fill-opacity:1;font-family:American Typewriter;-inkscape-font-specification:American Typewriter Bold"
         y="-696.99573"
         x="223.57263"
         id="tspan11942"
         sodipodi:role="line">n</tspan></text>
    <rect
       style="fill:none;stroke:#000000;stroke-width:6.50396299;stroke-linecap:round;stroke-linejoin:round;stroke-miterlimit:4;stroke-opacity:1;stroke-dasharray:none"
       id="rect4093"
       width="72.077812"
       height="82.068481"
       x="492.02545"
       y="-791.31012"
       ry="3.1028275"
       inkscape:export-filename="/Users/zerha/devel/tw/tas10/tas10box/vendor/assets/images/tas10-icons_16x16.png"
       inkscape:export-xdpi="44.996399"
       inkscape:export-ydpi="44.996399" />
    <path
       style="fill:none;stroke:#000000;stroke-width:7.35430241;stroke-linecap:round;stroke-linejoin:miter;stroke-miterlimit:4;stroke-opacity:1;stroke-dasharray:none"
       d="m 545.70036,-795.39555 c 0,18.03668 0,-3.88094 0,14.15546"
       id="path4103"
       inkscape:connector-curvature="0"
       sodipodi:nodetypes="cc"
       inkscape:export-filename="/Users/zerha/devel/tw/tas10/tas10box/vendor/assets/images/tas10-icons_16x16.png"
       inkscape:export-xdpi="44.996399"
       inkscape:export-ydpi="44.996399" />
    <path
       sodipodi:nodetypes="cc"
       inkscape:connector-curvature="0"
       id="path4105"
       d="m 510.65637,-795.61887 c 0,18.36413 -0.1977,-3.98535 -0.1977,14.37878"
       style="fill:none;stroke:#000000;stroke-width:7.18382549;stroke-linecap:round;stroke-linejoin:miter;stroke-miterlimit:4;stroke-opacity:1;stroke-dasharray:none"
       inkscape:export-filename="/Users/zerha/devel/tw/tas10/tas10box/vendor/assets/images/tas10-icons_16x16.png"
       inkscape:export-xdpi="44.996399"
       inkscape:export-ydpi="44.996399" />
    <rect
       style="fill:#000000;fill-opacity:1;fill-rule:nonzero;stroke:none"
       id="rect12829"
       width="67.249336"
       height="21.220905"
       x="494.03583"
       y="-731.72119"
       ry="0" />
    <text
       xml:space="preserve"
       style="font-size:32.95579147px;font-style:normal;font-weight:normal;line-height:125%;letter-spacing:0px;word-spacing:0px;fill:#000000;fill-opacity:1;stroke:none;font-family:Sans"
       x="507.89218"
       y="-746.20123"
       id="text12831"
       sodipodi:linespacing="125%"><tspan
         sodipodi:role="line"
         id="tspan12833"
         x="507.89218"
         y="-746.20123"
         style="font-weight:bold;fill:#000000;-inkscape-font-specification:Sans Bold">31</tspan></text>
    <path
       sodipodi:nodetypes="ccccccc"
       inkscape:connector-curvature="0"
       id="path12966"
       d="m 398.60899,-759.8604 65.54298,0 0,36.6898 -6.76802,7.95541 -52.95685,0 -5.81811,-7.59918 z"
       style="fill:#000000;fill-opacity:1;fill-rule:nonzero;stroke:none" />
    <path
       style="fill:none;stroke:#000000;stroke-width:10.02806091;stroke-miterlimit:4;stroke-opacity:1"
       d="m 424.7545,-785.73303 c 9.89497,-4.02339 20.88303,1.53422 24.54248,12.41326 1.56007,4.63792 0.53777,21.21731 -0.98358,25.87102"
       id="path12968"
       inkscape:connector-curvature="0"
       sodipodi:nodetypes="csc" />
    <path
       inkscape:connector-curvature="0"
       id="path12985"
       d="m 167.47578,-849.05031 -47.1,0"
       style="fill:none;stroke:#000000;stroke-width:12.12689209;stroke-linecap:square;stroke-linejoin:miter;stroke-miterlimit:4;stroke-opacity:1;stroke-dasharray:none" />
    <path
       inkscape:connector-curvature="0"
       id="path13574"
       d="m 600.08414,-744.26353 24.26651,-22.31281 24.26657,22.31281 z"
       style="fill:#000000;fill-opacity:1;stroke:#000000;stroke-width:2.32691765px;stroke-linecap:butt;stroke-linejoin:miter;stroke-opacity:1" />
    <path
       style="fill:#000000;fill-opacity:1;stroke:#000000;stroke-width:2.32691765px;stroke-linecap:butt;stroke-linejoin:miter;stroke-opacity:1"
       d="m 696.08414,-766.57634 24.26651,22.31281 24.26657,-22.31281 z"
       id="path13576"
       inkscape:connector-curvature="0"
       inkscape:export-xdpi="90"
       inkscape:export-ydpi="90" />
    <rect
       style="fill:none;stroke:#000000;stroke-width:3;stroke-linecap:round;stroke-linejoin:miter;stroke-miterlimit:4;stroke-opacity:1;stroke-dasharray:none"
       id="rect4448"
       width="52.419247"
       height="52.419247"
       x="789.5"
       y="-771.91925"
       ry="0"
       inkscape:export-filename="/Users/zerha/devel/tw/tas10/tas10box/vendor/assets/images/tas10-icons_16x16.png"
       inkscape:export-xdpi="44.996399"
       inkscape:export-ydpi="44.996399" />
    <rect
       inkscape:export-ydpi="44.996399"
       inkscape:export-xdpi="44.996399"
       inkscape:export-filename="/Users/zerha/devel/tw/tas10/tas10box/vendor/assets/images/tas10-icons_16x16.png"
       ry="0"
       y="-771.91925"
       x="882.5"
       height="52.419247"
       width="52.419247"
       id="rect14266"
       style="fill:none;stroke:#000000;stroke-width:3;stroke-linecap:round;stroke-linejoin:miter;stroke-miterlimit:4;stroke-opacity:1;stroke-dasharray:none" />
    <path
       style="fill:none;stroke:#009c00;stroke-width:12.005;stroke-linecap:butt;stroke-linejoin:miter;stroke-miterlimit:4;stroke-opacity:1;stroke-dasharray:none"
       d="m 894.74111,-762.00632 19.28704,26.97422 43.78011,-60.94719"
       id="path14264"
       inkscape:connector-curvature="0"
       sodipodi:nodetypes="ccc" />
    <g
       id="g4066"
       transform="matrix(3.0910497,0,0,3.1954959,-1.7199284,-3968.8843)"
       inkscape:export-filename="/Users/zerha/devel/tw/tas10/tas10box/vendor/assets/images/tas10-icons_16x16.png"
       inkscape:export-xdpi="44.996399"
       inkscape:export-ydpi="44.996399">
      <path
         sodipodi:type="arc"
         style="fill:none;stroke:#000000;stroke-width:1.75031519;stroke-linecap:round;stroke-linejoin:round;stroke-miterlimit:4;stroke-opacity:1;stroke-dasharray:none"
         id="path4032"
         sodipodi:cx="26.125"
         sodipodi:cy="96.5"
         sodipodi:rx="13.125"
         sodipodi:ry="11.75"
         d="m 16.170603,104.15811 c -4.724395,-4.921715 -4.097539,-12.340208 1.400123,-16.569666 5.497662,-4.229458 13.784277,-3.668272 18.508671,1.253444 4.724395,4.921717 4.097539,12.340212 -1.400123,16.569672 -5.441848,4.18651 -13.630452,3.68494 -18.384645,-1.12611"
         transform="matrix(1.1015639,0,0,1.1852713,-12.689895,922.37371)"
         sodipodi:start="2.4316976"
         sodipodi:end="8.7005039"
         sodipodi:open="true" />
      <path
         style="fill:none;stroke:#000000;stroke-width:1.33667636px;stroke-linecap:butt;stroke-linejoin:miter;stroke-opacity:1"
         d="m 12.337749,1023.0439 c -3.1071601,11.0143 -2.715918,18.2666 0,27.6646"
         id="path4034"
         inkscape:connector-curvature="0"
         sodipodi:nodetypes="cc" />
      <path
         sodipodi:nodetypes="cc"
         inkscape:connector-curvature="0"
         id="path4036"
         d="m 1.7770673,1037.1692 c 10.4427697,1.6891 19.9648867,1.546 28.8752227,0"
         style="fill:none;stroke:#000000;stroke-width:1.33667636px;stroke-linecap:butt;stroke-linejoin:miter;stroke-opacity:1" />
      <path
         style="fill:none;stroke:#000000;stroke-width:1.33667636px;stroke-linecap:butt;stroke-linejoin:miter;stroke-opacity:1"
         d="m 2.559286,1031.7804 c 10.44277,-3.2773 18.239277,-2.986 27.149613,-0.1208"
         id="path4038"
         inkscape:connector-curvature="0"
         sodipodi:nodetypes="cc" />
      <path
         sodipodi:nodetypes="cc"
         inkscape:connector-curvature="0"
         id="path4040"
         d="m 3.1344896,1043.3069 c 10.4427704,3.2774 16.8587874,2.622 25.7691234,-0.2427"
         style="fill:none;stroke:#000000;stroke-width:1.33667636px;stroke-linecap:butt;stroke-linejoin:miter;stroke-opacity:1" />
      <path
         sodipodi:nodetypes="cc"
         inkscape:connector-curvature="0"
         id="path4042"
         d="m 19.930097,1022.8011 c 3.10716,11.0144 2.600878,18.9948 -0.115042,28.3928"
         style="fill:none;stroke:#000000;stroke-width:1.33667636px;stroke-linecap:butt;stroke-linejoin:miter;stroke-opacity:1" />
    </g>
    <g
       id="g4067"
       transform="matrix(3.5934865,0,0,3.4994365,90.163237,-4182.1872)"
       inkscape:export-filename="/Users/zerha/devel/tw/tas10/tas10box/vendor/assets/images/tas10-icons_16x16.png"
       inkscape:export-xdpi="44.996399"
       inkscape:export-ydpi="44.996399">
      <path
         style="fill:none;stroke:#000000;stroke-width:2;stroke-linecap:round;stroke-linejoin:round;stroke-miterlimit:4;stroke-opacity:1"
         d="m 10.916665,1000.1095 10.313292,0 c 0.678709,0 1.259837,0.5473 1.225106,1.2251 l -0.740798,14.4565 c -0.03473,0.6778 -0.546397,1.2251 -1.225106,1.2251 l -8.584763,0 c -0.678709,0 -1.178848,-0.5481 -1.225106,-1.2251 l -0.9877312,-14.4565 c -0.046258,-0.677 0.5463972,-1.2251 1.2251062,-1.2251 z"
         id="rect4057"
         inkscape:connector-curvature="0"
         sodipodi:nodetypes="sssssssss" />
      <path
         style="fill:none;stroke:#000000;stroke-width:2;stroke-linecap:round;stroke-linejoin:round;stroke-miterlimit:4;stroke-opacity:1;stroke-dasharray:none"
         d="m 7.6156959,1001.5136 2.052273,-1.4446 12.6953121,0 2.254448,1.4496"
         id="path4059"
         inkscape:connector-curvature="0"
         sodipodi:nodetypes="cccc" />
      <path
         style="fill:none;stroke:#000000;stroke-width:1px;stroke-linecap:butt;stroke-linejoin:round;stroke-opacity:1"
         d="m 13.572187,1000.3061 0,-2.6856 4.933971,-0.034 0.02441,2.832"
         id="path4061"
         inkscape:connector-curvature="0"
         sodipodi:nodetypes="cccc" />
      <path
         style="fill:none;stroke:#000000;stroke-width:1px;stroke-linecap:butt;stroke-linejoin:miter;stroke-opacity:1"
         d="m 14.013672,1000.2085 0,16.9433"
         id="path4063"
         inkscape:connector-curvature="0" />
      <path
         style="fill:none;stroke:#000000;stroke-width:1px;stroke-linecap:butt;stroke-linejoin:miter;stroke-opacity:1"
         d="m 18.261719,1016.8589 0,-16.7481"
         id="path4065"
         inkscape:connector-curvature="0" />
    </g>
    <g
       id="g4326"
       transform="matrix(2.5791666,0,0,2.5791666,114.8843,-3733.1225)"
       inkscape:export-filename="/Users/zerha/devel/tw/tas10/tas10box/vendor/assets/images/tas10-icons_16x16.png"
       inkscape:export-xdpi="44.996399"
       inkscape:export-ydpi="44.996399">
      <g
         id="g4316">
        <path
           style="font-size:medium;font-style:normal;font-variant:normal;font-weight:normal;font-stretch:normal;text-indent:0;text-align:start;text-decoration:none;line-height:normal;letter-spacing:normal;word-spacing:normal;text-transform:none;direction:ltr;block-progression:tb;writing-mode:lr-tb;text-anchor:start;baseline-shift:baseline;color:#000000;fill:#000000;fill-opacity:1;fill-rule:nonzero;stroke:none;stroke-width:1;marker:none;visibility:visible;display:inline;overflow:visible;enable-background:accumulate;font-family:Sans;-inkscape-font-specification:Sans"
           d="m 60.961351,1193.3785 1.254221,0.6129 c 0.464608,0.1972 1.053643,0.04 1.358202,-0.3625 0.304226,-0.4027 0.295757,-1.0121 -0.02016,-1.4056 l -3.826252,-4.3563 c -0.424432,-0.4918 -1.290358,-0.4974 -1.7212,-0.012 l -3.746286,4.2202 c -0.316479,0.3836 -0.339942,0.9809 -0.05336,1.3873 0.286694,0.4066 0.857305,0.5856 1.324719,0.4157 l 1.847672,-0.7319 z m -2.030466,-3.0002 c -0.0075,0.01 -0.0076,0.022 -0.01494,0.029 -0.02393,0.01 -0.04184,0.025 -0.06373,0.038 -0.01885,-0.013 -0.03632,-0.023 -0.05554,-0.036 l 0.08138,-0.065 z"
           id="path4306"
           inkscape:connector-curvature="0"
           sodipodi:nodetypes="ccsccccsccccccccc" />
        <path
           sodipodi:type="arc"
           style="fill:#000000;fill-opacity:0;stroke:#000000;stroke-width:2.5;stroke-linecap:round;stroke-linejoin:round;stroke-miterlimit:4;stroke-opacity:1;stroke-dasharray:none"
           id="path4310"
           sodipodi:cx="72.421509"
           sodipodi:cy="173.44417"
           sodipodi:rx="9.5429068"
           sodipodi:ry="9.9350805"
           d="m 81.964416,173.44417 c 0,5.48699 -4.272505,9.93508 -9.542907,9.93508 -2.759246,0 -5.38343,-1.24338 -7.195769,-3.40948"
           transform="translate(-22.924216,1019.8075)"
           sodipodi:start="0"
           sodipodi:end="2.4249933"
           sodipodi:open="true" />
      </g>
      <g
         transform="matrix(-1,0,0,-1,99.45036,2384.3515)"
         id="g4320">
        <path
           sodipodi:nodetypes="ccsccccsccccccccc"
           inkscape:connector-curvature="0"
           id="path4322"
           d="m 60.961351,1193.3785 1.254221,0.6129 c 0.464608,0.1972 1.053643,0.04 1.358202,-0.3625 0.304226,-0.4027 0.295757,-1.0121 -0.02016,-1.4056 l -3.826252,-4.3563 c -0.424432,-0.4918 -1.290358,-0.4974 -1.7212,-0.012 l -3.746286,4.2202 c -0.316479,0.3836 -0.339942,0.9809 -0.05336,1.3873 0.286694,0.4066 0.857305,0.5856 1.324719,0.4157 l 1.847672,-0.7319 z m -2.030466,-3.0002 c -0.0075,0.01 -0.0076,0.022 -0.01494,0.029 -0.02393,0.01 -0.04184,0.025 -0.06373,0.038 -0.01885,-0.013 -0.03632,-0.023 -0.05554,-0.036 l 0.08138,-0.065 z"
           style="font-size:medium;font-style:normal;font-variant:normal;font-weight:normal;font-stretch:normal;text-indent:0;text-align:start;text-decoration:none;line-height:normal;letter-spacing:normal;word-spacing:normal;text-transform:none;direction:ltr;block-progression:tb;writing-mode:lr-tb;text-anchor:start;baseline-shift:baseline;color:#000000;fill:#000000;fill-opacity:1;fill-rule:nonzero;stroke:none;stroke-width:1;marker:none;visibility:visible;display:inline;overflow:visible;enable-background:accumulate;font-family:Sans;-inkscape-font-specification:Sans" />
        <path
           sodipodi:open="true"
           sodipodi:end="2.3873071"
           sodipodi:start="0"
           transform="translate(-22.924216,1019.8075)"
           d="m 81.964416,173.44417 c 0,5.48699 -4.272505,9.93508 -9.542907,9.93508 -2.633982,0 -5.150831,-1.13343 -6.954498,-3.13185"
           sodipodi:ry="9.9350805"
           sodipodi:rx="9.5429068"
           sodipodi:cy="173.44417"
           sodipodi:cx="72.421509"
           id="path4324"
           style="fill:#000000;fill-opacity:0;stroke:#000000;stroke-width:2.5;stroke-linecap:round;stroke-linejoin:round;stroke-miterlimit:4;stroke-opacity:1;stroke-dasharray:none"
           sodipodi:type="arc" />
      </g>
    </g>
    <rect
       style="fill:#000000;fill-opacity:1;fill-rule:nonzero;stroke:none"
       id="rect4402"
       width="85.685776"
       height="57.89579"
       x="292.69928"
       y="-687.86359"
       ry="3.3290131" />
    <path
       inkscape:export-ydpi="90"
       inkscape:export-xdpi="90"
       inkscape:connector-curvature="0"
       id="path4404"
       d="m 330.82583,-633.879 18.95894,17.43254 18.95899,-17.43254 z"
       style="fill:#000000;fill-opacity:1;stroke:#000000;stroke-width:1.81797445px;stroke-linecap:butt;stroke-linejoin:miter;stroke-opacity:1" />
  </g>
</svg>
